<?xml version="1.0" encoding="utf-8"?>
<!-- Generator: Adobe Illustrator 16.0.0, SVG Export Plug-In . SVG Version: 6.00 Build 0)  -->
<!DOCTYPE svg PUBLIC "-//W3C//DTD SVG 1.1//EN" "http://www.w3.org/Graphics/SVG/1.1/DTD/svg11.dtd">
<svg version="1.1" id="Layer_1" xmlns="http://www.w3.org/2000/svg" xmlns:xlink="http://www.w3.org/1999/xlink" x="0px" y="0px"
	 width="295.2px" height="165.6px" viewBox="0 0 295.2 165.6" enable-background="new 0 0 295.2 165.6" xml:space="preserve">
<circle fill="#FFFFFF" cx="37.935" cy="28.88" r="0.673"/>
<circle fill="#FFFFFF" cx="63.274" cy="13.632" r="0.673"/>
<circle fill="#FFFFFF" cx="63.274" cy="42.223" r="0.673"/>
<circle fill="#FFFFFF" cx="46.119" cy="55.565" r="0.673"/>
<circle fill="#FFFFFF" cx="74.15" cy="50.632" r="0.673"/>
<circle fill="#FFFFFF" cx="66.862" cy="33.029" r="0.673"/>
<circle fill="#FFFFFF" cx="49.147" cy="16.132" r="0.673"/>
<circle fill="#FFFFFF" cx="38.608" cy="16.805" r="0.673"/>
<circle fill="#FFFFFF" cx="29.918" cy="31.684" r="0.673"/>
<circle fill="#FFFFFF" cx="22.799" cy="19.238" r="0.673"/>
<circle fill="#FFFFFF" cx="33.674" cy="5.705" r="0.673"/>
<circle fill="#FFFFFF" cx="46.792" cy="25.886" r="0.673"/>
<circle fill="#FFFFFF" cx="62.601" cy="20.583" r="0.673"/>
<circle fill="#FFFFFF" cx="79.027" cy="40.877" r="0.673"/>
<circle fill="#FFFFFF" cx="83.568" cy="21.929" r="0.673"/>
<circle fill="#FFFFFF" cx="98.2" cy="7.05" r="0.673"/>
<circle fill="#FFFFFF" cx="107.282" cy="28.208" r="0.673"/>
<circle fill="#FFFFFF" cx="82.223" cy="8.396" r="0.673"/>
<circle fill="#FFFFFF" cx="145.627" cy="22.602" r="0.673"/>
<circle fill="#FFFFFF" cx="98.2" cy="51.978" r="0.673"/>
<circle fill="#FFFFFF" cx="84.914" cy="49.959" r="0.673"/>
<circle fill="#FFFFFF" cx="73.477" cy="66.665" r="0.673"/>
<circle fill="#FFFFFF" cx="56.491" cy="58.929" r="0.673"/>
<circle fill="#FFFFFF" cx="84.914" cy="81.723" r="0.673"/>
<circle fill="#FFFFFF" cx="48.474" cy="65.993" r="0.673"/>
<circle fill="#FFFFFF" cx="138.732" cy="54.893" r="0.673"/>
<circle fill="#FFFFFF" cx="125.446" cy="12.959" r="0.673"/>
<circle fill="#FFFFFF" cx="93.995" cy="20.583" r="0.673"/>
<circle fill="#FFFFFF" cx="115.523" cy="10.918" r="0.673"/>
<circle fill="#FFFFFF" cx="127.8" cy="31.011" r="0.673"/>
<circle fill="#FFFFFF" cx="145.627" cy="2.173" r="0.673"/>
<circle fill="#FFFFFF" cx="152.187" cy="47.414" r="0.673"/>
<circle fill="#FFFFFF" cx="97.527" cy="41.55" r="0.673"/>
<circle fill="#FFFFFF" cx="124.773" cy="74.178" r="0.673"/>
<circle fill="#FFFFFF" cx="91.809" cy="66.665" r="0.673"/>
<circle fill="#FFFFFF" cx="118.55" cy="74.851" r="0.673"/>
<circle fill="#FFFFFF" cx="121.914" cy="47.414" r="0.673"/>
<circle fill="#FFFFFF" cx="103.649" cy="64.647" r="0.673"/>
<circle fill="#FFFFFF" cx="141.423" cy="73.505" r="0.673"/>
<circle fill="#FFFFFF" cx="95.341" cy="92.453" r="0.673"/>
<circle fill="#FFFFFF" cx="119.896" cy="127.67" r="0.673"/>
<circle fill="#FFFFFF" cx="104.322" cy="87.967" r="0.673"/>
<circle fill="#FFFFFF" cx="113.168" cy="50.632" r="0.673"/>
<circle fill="#FFFFFF" cx="256.931" cy="48.893" r="0.673"/>
<circle fill="#FFFFFF" cx="273.576" cy="10.918" r="0.673"/>
<circle fill="#FFFFFF" cx="189.423" cy="96.395" r="0.673"/>
<circle fill="#FFFFFF" cx="208.904" cy="56.534" r="0.673"/>
<circle fill="#FFFFFF" cx="220.26" cy="15.458" r="0.673"/>
<circle fill="#FFFFFF" cx="185.165" cy="73.223" r="0.673"/>
<circle fill="#FFFFFF" cx="175.811" cy="92.363" r="0.673"/>
<circle fill="#FFFFFF" cx="161.076" cy="88.736" r="0.673"/>
<circle fill="#FFFFFF" cx="113.168" cy="63.974" r="0.673"/>
<circle fill="#FFFFFF" cx="122.586" cy="95.48" r="0.673"/>
<circle fill="#FFFFFF" cx="108.627" cy="79.783" r="0.673"/>
<circle fill="#FFFFFF" cx="134.191" cy="89.313" r="0.673"/>
<circle fill="#FFFFFF" cx="135.536" cy="61.709" r="0.673"/>
<circle fill="#FFFFFF" cx="156.559" cy="55.565" r="0.672"/>
<circle fill="#FFFFFF" cx="159.25" cy="31.011" r="0.673"/>
<circle fill="#FFFFFF" cx="144.282" cy="40.877" r="0.673"/>
<circle fill="#FFFFFF" cx="176.339" cy="20.738" r="0.673"/>
<circle fill="#FFFFFF" cx="155.887" cy="21.929" r="0.673"/>
<circle fill="#FFFFFF" cx="121.914" cy="21.929" r="0.673"/>
<circle fill="#FFFFFF" cx="168.292" cy="40.268" r="0.673"/>
<circle fill="#FFFFFF" cx="183.805" cy="10.246" r="0.673"/>
<circle fill="#FFFFFF" cx="176.544" cy="37.936" r="0.673"/>
<circle fill="#FFFFFF" cx="168.332" cy="39.98" r="0.673"/>
<circle fill="#FFFFFF" cx="159.923" cy="59.602" r="0.673"/>
<circle fill="#FFFFFF" cx="158.374" cy="73.582" r="0.673"/>
<circle fill="#FFFFFF" cx="162.277" cy="89.986" r="0.673"/>
<circle fill="#FFFFFF" cx="152.187" cy="65.32" r="0.673"/>
<circle fill="#FFFFFF" cx="136.882" cy="31.011" r="0.673"/>
<circle fill="#FFFFFF" cx="137.555" cy="16.805" r="0.673"/>
<circle fill="#FFFFFF" cx="157.232" cy="42.896" r="0.672"/>
<circle fill="#FFFFFF" cx="173.662" cy="62.984" r="0.673"/>
<circle fill="#FFFFFF" cx="192.349" cy="27.814" r="0.673"/>
<circle fill="#FFFFFF" cx="150.702" cy="74.725" r="0.673"/>
<circle fill="#FFFFFF" cx="165.473" cy="70.813" r="0.673"/>
<circle fill="#FFFFFF" cx="150.841" cy="92.453" r="0.673"/>
<circle fill="#FFFFFF" cx="166.146" cy="105.772" r="0.673"/>
<circle fill="#FFFFFF" cx="167.986" cy="50.85" r="0.672"/>
<circle fill="#FFFFFF" cx="153.06" cy="63.772" r="0.672"/>
<circle fill="#FFFFFF" cx="142.095" cy="87.968" r="0.673"/>
<circle fill="#FFFFFF" cx="153.983" cy="97.12" r="0.673"/>
<circle fill="#FFFFFF" cx="157.232" cy="82.396" r="0.672"/>
<circle fill="#FFFFFF" cx="122.586" cy="84.918" r="0.673"/>
<circle fill="#FFFFFF" cx="121.241" cy="63.974" r="0.673"/>
<circle fill="#FFFFFF" cx="55.566" cy="25.421" r="0.673"/>
<circle fill="#FFFFFF" cx="69.189" cy="39.717" r="0.673"/>
<circle fill="#FFFFFF" cx="54.893" cy="41.982" r="0.673"/>
<circle fill="#FFFFFF" cx="139.152" cy="63.878" r="0.673"/>
<circle fill="#FFFFFF" cx="152.775" cy="78.174" r="0.673"/>
<circle fill="#FFFFFF" cx="138.479" cy="80.439" r="0.673"/>
<circle fill="#FFFFFF" cx="66.33" cy="82.378" r="0.673"/>
<circle fill="#FFFFFF" cx="79.952" cy="96.674" r="0.673"/>
<circle fill="#FFFFFF" cx="65.657" cy="98.939" r="0.673"/>
<circle fill="#FFFFFF" cx="28.545" cy="82.378" r="0.673"/>
<circle fill="#FFFFFF" cx="42.167" cy="96.674" r="0.673"/>
<circle fill="#FFFFFF" cx="27.872" cy="98.939" r="0.673"/>
<circle fill="#FFFFFF" cx="101.003" cy="41.55" r="0.673"/>
<circle fill="#FFFFFF" cx="89.399" cy="54.22" r="0.673"/>
<circle fill="#FFFFFF" cx="79.7" cy="93.463" r="0.673"/>
<circle fill="#FFFFFF" cx="53.744" cy="78.438" r="0.673"/>
<circle fill="#FFFFFF" cx="35.693" cy="102.073" r="0.673"/>
<circle fill="#FFFFFF" cx="125.446" cy="105.1" r="0.673"/>
<circle fill="#FFFFFF" cx="94.668" cy="105.1" r="0.673"/>
<circle fill="#FFFFFF" cx="79.027" cy="107.993" r="0.673"/>
<circle fill="#FFFFFF" cx="73.477" cy="87.295" r="0.673"/>
<circle fill="#FFFFFF" cx="73.477" cy="70.813" r="0.673"/>
<circle fill="#FFFFFF" cx="14.165" cy="56.238" r="0.673"/>
<circle fill="#FFFFFF" cx="22.126" cy="75.523" r="0.673"/>
<circle fill="#FFFFFF" cx="76.392" cy="20.583" r="0.673"/>
<circle fill="#FFFFFF" cx="53.744" cy="38.635" r="0.673"/>
<circle fill="#FFFFFF" cx="94.668" cy="31.684" r="0.673"/>
<circle fill="#FFFFFF" cx="72.805" cy="28.88" r="0.673"/>
<circle fill="#FFFFFF" cx="93.995" cy="56.238" r="0.673"/>
<circle fill="#FFFFFF" cx="60.696" cy="67.338" r="0.673"/>
<circle fill="#FFFFFF" cx="66.862" cy="57.583" r="0.673"/>
<circle fill="#FFFFFF" cx="61.368" cy="73.505" r="0.673"/>
<circle fill="#FFFFFF" cx="33.002" cy="68.011" r="0.673"/>
<circle fill="#FFFFFF" cx="38.608" cy="44.241" r="0.673"/>
<circle fill="#FFFFFF" cx="60.023" cy="51.305" r="0.673"/>
<circle fill="#FFFFFF" cx="14.165" cy="40.877" r="0.673"/>
<circle fill="#FFFFFF" cx="24.144" cy="56.911" r="0.673"/>
<circle fill="#FFFFFF" cx="24.144" cy="44.241" r="0.673"/>
<circle fill="#FFFFFF" cx="27.844" cy="38.635" r="0.673"/>
<circle fill="#FFFFFF" cx="17.641" cy="74.178" r="0.673"/>
<circle fill="#FFFFFF" cx="33.674" cy="89.986" r="0.673"/>
<circle fill="#FFFFFF" cx="35.02" cy="78.438" r="0.673"/>
<circle fill="#FFFFFF" cx="48.474" cy="91.781" r="0.673"/>
<circle fill="#FFFFFF" cx="18.314" cy="89.313" r="0.673"/>
<circle fill="#FFFFFF" cx="11.923" cy="107.993" r="0.673"/>
<circle fill="#FFFFFF" cx="67.535" cy="94.136" r="0.673"/>
<circle fill="#FFFFFF" cx="47.465" cy="98.283" r="0.673"/>
<circle fill="#FFFFFF" cx="53.632" cy="71.486" r="0.673"/>
<circle fill="#FFFFFF" cx="93.995" cy="74.851" r="0.673"/>
<circle fill="#FFFFFF" cx="216.291" cy="46.529" r="0.672"/>
<circle fill="#FFFFFF" cx="204.426" cy="32.119" r="0.672"/>
<circle fill="#FFFFFF" cx="256.672" cy="24.749" r="0.672"/>
<circle fill="#FFFFFF" cx="230.351" cy="49.566" r="0.673"/>
<circle fill="#FFFFFF" cx="194.122" cy="34.946" r="0.673"/>
<circle fill="#FFFFFF" cx="237.246" cy="34.508" r="0.673"/>
<circle fill="#FFFFFF" cx="218.518" cy="8.395" r="0.673"/>
<circle fill="#FFFFFF" cx="218.252" cy="35.876" r="0.673"/>
<circle fill="#FFFFFF" cx="240.778" cy="60.296" r="0.673"/>
<circle fill="#FFFFFF" cx="202.969" cy="57.508" r="0.673"/>
<circle fill="#FFFFFF" cx="214.248" cy="69.272" r="0.673"/>
<circle fill="#FFFFFF" cx="195.093" cy="72.091" r="0.673"/>
<circle fill="#FFFFFF" cx="223.363" cy="40.268" r="0.672"/>
<circle fill="#FFFFFF" cx="193.392" cy="48.441" r="0.673"/>
<circle fill="#FFFFFF" cx="240.105" cy="72.943" r="0.672"/>
<circle fill="#FFFFFF" cx="212.902" cy="83.935" r="0.673"/>
<circle fill="#FFFFFF" cx="207.232" cy="65.063" r="0.672"/>
<circle fill="#FFFFFF" cx="214.469" cy="50.256" r="0.672"/>
<circle fill="#FFFFFF" cx="204.511" cy="41.521" r="0.672"/>
<circle fill="#FFFFFF" cx="202.408" cy="47.357" r="0.673"/>
<circle fill="#FFFFFF" cx="182.798" cy="58.115" r="0.673"/>
<circle fill="#FFFFFF" cx="198.889" cy="68.6" r="0.673"/>
<circle fill="#FFFFFF" cx="196.344" cy="42.146" r="0.673"/>
<circle fill="#FFFFFF" cx="239.433" cy="42.694" r="0.673"/>
<circle fill="#FFFFFF" cx="89.399" cy="37.29" r="0.673"/>
<circle fill="#FFFFFF" cx="119.223" cy="39.98" r="0.673"/>
<circle fill="#FFFFFF" cx="206.818" cy="156.368" r="0.673"/>
<circle fill="#FFFFFF" cx="179.594" cy="147.485" r="0.673"/>
<circle fill="#FFFFFF" cx="194.255" cy="131.444" r="0.673"/>
<circle fill="#FFFFFF" cx="167.456" cy="141.028" r="0.673"/>
<circle fill="#FFFFFF" cx="177.605" cy="157.152" r="0.673"/>
<circle fill="#FFFFFF" cx="214.248" cy="152.255" r="0.673"/>
<circle fill="#FFFFFF" cx="223.362" cy="163.322" r="0.673"/>
<circle fill="#FFFFFF" cx="198.592" cy="160.812" r="0.673"/>
<circle fill="#FFFFFF" cx="164.292" cy="151.466" r="0.673"/>
<circle fill="#FFFFFF" cx="143.523" cy="143.755" r="0.673"/>
<circle fill="#FFFFFF" cx="156.96" cy="143.505" r="0.673"/>
<circle fill="#FFFFFF" cx="165.418" cy="125.112" r="0.673"/>
<circle fill="#FFFFFF" cx="183.465" cy="129.876" r="0.673"/>
<circle fill="#FFFFFF" cx="151.608" cy="112.196" r="0.673"/>
<circle fill="#FFFFFF" cx="190.177" cy="121.562" r="0.673"/>
<circle fill="#FFFFFF" cx="103.08" cy="147.71" r="0.673"/>
<circle fill="#FFFFFF" cx="91.077" cy="157.349" r="0.673"/>
<circle fill="#FFFFFF" cx="145.943" cy="153.92" r="0.673"/>
<circle fill="#FFFFFF" cx="113.59" cy="126.349" r="0.673"/>
<circle fill="#FFFFFF" cx="147.349" cy="128.2" r="0.673"/>
<circle fill="#FFFFFF" cx="119.61" cy="124.636" r="0.673"/>
<circle fill="#FFFFFF" cx="120.918" cy="152.249" r="0.673"/>
<circle fill="#FFFFFF" cx="136.018" cy="132.185" r="0.673"/>
<circle fill="#FFFFFF" cx="97.291" cy="129.817" r="0.673"/>
<circle fill="#FFFFFF" cx="38.608" cy="125.112" r="0.673"/>
<circle fill="#FFFFFF" cx="139.522" cy="103.376" r="0.673"/>
<circle fill="#FFFFFF" cx="109.385" cy="72.8" r="0.673"/>
<circle fill="#FFFFFF" cx="131.426" cy="109.312" r="0.673"/>
<circle fill="#FFFFFF" cx="128.996" cy="147.603" r="0.673"/>
<circle fill="#FFFFFF" cx="46.121" cy="115.342" r="0.672"/>
<circle fill="#FFFFFF" cx="33.634" cy="157.915" r="0.673"/>
<circle fill="#FFFFFF" cx="54.222" cy="137.466" r="0.673"/>
<circle fill="#FFFFFF" cx="60.218" cy="117.022" r="0.673"/>
<circle fill="#FFFFFF" cx="75.353" cy="118.115" r="0.673"/>
<circle fill="#FFFFFF" cx="126.748" cy="134.452" r="0.673"/>
<circle fill="#FFFFFF" cx="112.156" cy="104.982" r="0.673"/>
<circle fill="#FFFFFF" cx="128.561" cy="118.104" r="0.673"/>
<circle fill="#FFFFFF" cx="101.757" cy="113.017" r="0.673"/>
<circle fill="#FFFFFF" cx="105.081" cy="140.453" r="0.673"/>
<circle fill="#FFFFFF" cx="85.394" cy="150.051" r="0.672"/>
<circle fill="#FFFFFF" cx="99.97" cy="162.46" r="0.673"/>
<circle fill="#FFFFFF" cx="81.398" cy="146.639" r="0.673"/>
<circle fill="#FFFFFF" cx="80.57" cy="132.598" r="0.673"/>
<circle fill="#FFFFFF" cx="73.958" cy="117.085" r="0.673"/>
<circle fill="#FFFFFF" cx="88.061" cy="139.698" r="0.673"/>
<circle fill="#FFFFFF" cx="86.865" cy="162.652" r="0.672"/>
<circle fill="#FFFFFF" cx="67.286" cy="145.62" r="0.673"/>
<circle fill="#FFFFFF" cx="87.939" cy="130.178" r="0.673"/>
<circle fill="#FFFFFF" cx="74.039" cy="136.522" r="0.673"/>
<circle fill="#FFFFFF" cx="84.816" cy="112.727" r="0.673"/>
<circle fill="#FFFFFF" cx="67.486" cy="102.177" r="0.673"/>
<circle fill="#FFFFFF" cx="74.925" cy="156.624" r="0.672"/>
<circle fill="#FFFFFF" cx="87.46" cy="141.372" r="0.672"/>
<circle fill="#FFFFFF" cx="94.192" cy="115.675" r="0.673"/>
<circle fill="#FFFFFF" cx="80.932" cy="108.656" r="0.673"/>
<circle fill="#FFFFFF" cx="80.21" cy="123.718" r="0.672"/>
<circle fill="#FFFFFF" cx="113.936" cy="115.394" r="0.673"/>
<circle fill="#FFFFFF" cx="118.791" cy="135.812" r="0.673"/>
<circle fill="#FFFFFF" cx="190.022" cy="162.748" r="0.673"/>
<circle fill="#FFFFFF" cx="174.186" cy="150.952" r="0.673"/>
<circle fill="#FFFFFF" cx="187.895" cy="146.311" r="0.672"/>
<circle fill="#FFFFFF" cx="101.151" cy="138.924" r="0.673"/>
<circle fill="#FFFFFF" cx="85.315" cy="127.128" r="0.673"/>
<circle fill="#FFFFFF" cx="99.024" cy="122.486" r="0.673"/>
<circle fill="#FFFFFF" cx="169.816" cy="108.419" r="0.673"/>
<circle fill="#FFFFFF" cx="153.979" cy="96.623" r="0.673"/>
<circle fill="#FFFFFF" cx="167.689" cy="91.981" r="0.673"/>
<circle fill="#FFFFFF" cx="207.061" cy="102.052" r="0.673"/>
<circle fill="#FFFFFF" cx="191.225" cy="90.257" r="0.673"/>
<circle fill="#FFFFFF" cx="204.934" cy="85.615" r="0.673"/>
<circle fill="#FFFFFF" cx="142.518" cy="154.505" r="0.673"/>
<circle fill="#FFFFFF" cx="151.821" cy="140.062" r="0.673"/>
<circle fill="#FFFFFF" cx="154.77" cy="99.745" r="0.673"/>
<circle fill="#FFFFFF" cx="182.886" cy="110.183" r="0.673"/>
<circle fill="#FFFFFF" cx="196.697" cy="83.844" r="0.673"/>
<circle fill="#FFFFFF" cx="107.717" cy="95.982" r="0.673"/>
<circle fill="#FFFFFF" cx="138.055" cy="90.797" r="0.673"/>
<circle fill="#FFFFFF" cx="152.984" cy="85.31" r="0.673"/>
<circle fill="#FFFFFF" cx="161.942" cy="104.776" r="0.673"/>
<circle fill="#FFFFFF" cx="164.719" cy="121.022" r="0.672"/>
<circle fill="#FFFFFF" cx="225.639" cy="125.397" r="0.673"/>
<circle fill="#FFFFFF" cx="214.543" cy="107.729" r="0.673"/>
<circle fill="#FFFFFF" cx="189.592" cy="149.416" r="0.673"/>
<circle fill="#FFFFFF" cx="150.424" cy="163.164" r="0.673"/>
<circle fill="#FFFFFF" cx="172.447" cy="162.243" r="0.673"/>
<circle fill="#FFFFFF" cx="146.95" cy="138.847" r="0.673"/>
<circle fill="#FFFFFF" cx="177.904" cy="122.296" r="0.672"/>
<circle fill="#FFFFFF" cx="173.469" cy="132.949" r="0.673"/>
<circle fill="#FFFFFF" cx="176.202" cy="116.329" r="0.673"/>
<circle fill="#FFFFFF" cx="205.088" cy="116.966" r="0.672"/>
<circle fill="#FFFFFF" cx="203.567" cy="141.341" r="0.673"/>
<circle fill="#FFFFFF" cx="181.269" cy="137.985" r="0.673"/>
<circle fill="#FFFFFF" cx="228.227" cy="140.538" r="0.672"/>
<circle fill="#FFFFFF" cx="215.689" cy="126.415" r="0.673"/>
<circle fill="#FFFFFF" cx="217.824" cy="138.903" r="0.673"/>
<circle fill="#FFFFFF" cx="215.121" cy="145.053" r="0.673"/>
<circle fill="#FFFFFF" cx="219.19" cy="108.3" r="0.673"/>
<circle fill="#FFFFFF" cx="200.723" cy="95.418" r="0.673"/>
<circle fill="#FFFFFF" cx="201.343" cy="107.028" r="0.673"/>
<circle fill="#FFFFFF" cx="185.832" cy="96.142" r="0.673"/>
<circle fill="#FFFFFF" cx="215.978" cy="93.493" r="0.673"/>
<circle fill="#FFFFFF" cx="205.606" cy="82.378" r="0.673"/>
<circle fill="#FFFFFF" cx="166.647" cy="97.032" r="0.673"/>
<circle fill="#FFFFFF" cx="185.731" cy="89.563" r="0.673"/>
<circle fill="#FFFFFF" cx="184.168" cy="117.017" r="0.673"/>
<circle fill="#FFFFFF" cx="143.814" cy="120.499" r="0.673"/>
<circle fill="#FFFFFF" cx="1.582" cy="159.576" r="0.673"/>
<circle fill="#FFFFFF" cx="39.321" cy="155.955" r="0.673"/>
<circle fill="#FFFFFF" cx="16.039" cy="152.823" r="0.673"/>
<circle fill="#FFFFFF" cx="44.627" cy="140.253" r="0.673"/>
<circle fill="#FFFFFF" cx="16.829" cy="155.946" r="0.672"/>
<circle fill="#FFFFFF" cx="50.288" cy="163.279" r="0.673"/>
<circle fill="#FFFFFF" cx="0.115" cy="146.997" r="0.672"/>
<circle fill="#FFFFFF" cx="15.045" cy="141.511" r="0.673"/>
<circle fill="#FFFFFF" cx="30.591" cy="133.271" r="0.673"/>
<circle fill="#FFFFFF" cx="30.591" cy="113.69" r="0.673"/>
<circle fill="#FFFFFF" cx="39.821" cy="111.524" r="0.673"/>
<circle fill="#FFFFFF" cx="11.25" cy="89.585" r="0.673"/>
<circle fill="#FFFFFF" cx="9.408" cy="16.132" r="0.673"/>
<circle fill="#FFFFFF" cx="251.677" cy="91.691" r="0.673"/>
<circle fill="#FFFFFF" cx="253.024" cy="2.174" r="0.673"/>
<circle fill="#FFFFFF" cx="240.105" cy="22.603" r="0.673"/>
<circle fill="#FFFFFF" cx="208.231" cy="16.132" r="0.673"/>
<circle fill="#FFFFFF" cx="194.255" cy="20.739" r="0.673"/>
<circle fill="#FFFFFF" cx="163.682" cy="12.96" r="0.673"/>
<circle fill="#FFFFFF" cx="139.522" cy="12.288" r="0.673"/>
<circle fill="#FFFFFF" cx="101.824" cy="16.805" r="0.673"/>
<circle fill="#FFFFFF" cx="52.959" cy="7.724" r="0.673"/>
<circle fill="#FFFFFF" cx="12.995" cy="34.51" r="0.673"/>
<circle fill="#FFFFFF" cx="244.997" cy="104.311" r="0.673"/>
<circle fill="#FFFFFF" cx="13.668" cy="121.563" r="0.673"/>
<circle fill="#FFFFFF" cx="33.845" cy="149.226" r="0.672"/>
<circle fill="#FFFFFF" cx="29.206" cy="165.041" r="0.673"/>
<circle fill="#FFFFFF" cx="59.101" cy="151.958" r="0.673"/>
<circle fill="#FFFFFF" cx="41.473" cy="144.334" r="0.673"/>
<circle fill="#FFFFFF" cx="24.817" cy="127.127" r="0.673"/>
<circle fill="#FFFFFF" cx="154.674" cy="156.75" r="0.673"/>
<circle fill="#FFFFFF" cx="265.085" cy="89.67" r="0.673"/>
<circle fill="#FFFFFF" cx="256.258" cy="72.943" r="0.673"/>
<circle fill="#FFFFFF" cx="262.885" cy="39.98" r="0.673"/>
<circle fill="#FFFFFF" cx="274.254" cy="27.534" r="0.673"/>
<circle fill="#FFFFFF" cx="251.473" cy="85.639" r="0.673"/>
<circle fill="#FFFFFF" cx="236.738" cy="82.012" r="0.673"/>
<circle fill="#FFFFFF" cx="234.036" cy="66.857" r="0.673"/>
<circle fill="#FFFFFF" cx="237.939" cy="83.262" r="0.673"/>
<circle fill="#FFFFFF" cx="227.849" cy="58.595" r="0.673"/>
<circle fill="#FFFFFF" cx="249.324" cy="56.259" r="0.673"/>
<circle fill="#FFFFFF" cx="226.364" cy="68" r="0.673"/>
<circle fill="#FFFFFF" cx="241.135" cy="64.089" r="0.673"/>
<circle fill="#FFFFFF" cx="226.503" cy="85.729" r="0.673"/>
<circle fill="#FFFFFF" cx="241.808" cy="99.048" r="0.673"/>
<circle fill="#FFFFFF" cx="228.722" cy="57.047" r="0.672"/>
<circle fill="#FFFFFF" cx="229.646" cy="90.396" r="0.673"/>
<circle fill="#FFFFFF" cx="232.894" cy="75.671" r="0.672"/>
<circle fill="#FFFFFF" cx="234.036" cy="54.22" r="0.673"/>
<circle fill="#FFFFFF" cx="270.755" cy="65.367" r="0.673"/>
<circle fill="#FFFFFF" cx="282.894" cy="58.339" r="0.672"/>
<circle fill="#FFFFFF" cx="240.381" cy="5.705" r="0.672"/>
<circle fill="#FFFFFF" cx="269.917" cy="41.55" r="0.672"/>
<circle fill="#FFFFFF" cx="278.556" cy="24.749" r="0.672"/>
<circle fill="#FFFFFF" cx="284.524" cy="20.738" r="0.672"/>
<circle fill="#FFFFFF" cx="282.48" cy="7.723" r="0.672"/>
<circle fill="#FFFFFF" cx="274.551" cy="61.875" r="0.673"/>
<circle fill="#FFFFFF" cx="282.894" cy="37.264" r="0.673"/>
<circle fill="#FFFFFF" cx="260.072" cy="21.93" r="0.673"/>
<circle fill="#FFFFFF" cx="282.48" cy="149.644" r="0.673"/>
<circle fill="#FFFFFF" cx="255.256" cy="140.761" r="0.673"/>
<circle fill="#FFFFFF" cx="269.917" cy="124.719" r="0.673"/>
<circle fill="#FFFFFF" cx="243.118" cy="134.304" r="0.673"/>
<circle fill="#FFFFFF" cx="253.268" cy="150.428" r="0.673"/>
<circle fill="#FFFFFF" cx="273.576" cy="164.099" r="0.673"/>
<circle fill="#FFFFFF" cx="283.852" cy="161.66" r="0.673"/>
<circle fill="#FFFFFF" cx="289.91" cy="145.53" r="0.673"/>
<circle fill="#FFFFFF" cx="274.254" cy="154.087" r="0.673"/>
<circle fill="#FFFFFF" cx="259.564" cy="161.978" r="0.673"/>
<circle fill="#FFFFFF" cx="239.954" cy="144.741" r="0.673"/>
<circle fill="#FFFFFF" cx="238.671" cy="164.184" r="0.673"/>
<circle fill="#FFFFFF" cx="232.622" cy="136.78" r="0.673"/>
<circle fill="#FFFFFF" cx="241.08" cy="118.388" r="0.673"/>
<circle fill="#FFFFFF" cx="259.127" cy="123.151" r="0.673"/>
<circle fill="#FFFFFF" cx="227.271" cy="105.472" r="0.673"/>
<circle fill="#FFFFFF" cx="265.839" cy="114.837" r="0.673"/>
<circle fill="#FFFFFF" cx="221.605" cy="147.195" r="0.673"/>
<circle fill="#FFFFFF" cx="223.011" cy="121.476" r="0.673"/>
<circle fill="#FFFFFF" cx="265.685" cy="156.023" r="0.673"/>
<circle fill="#FFFFFF" cx="249.848" cy="144.228" r="0.673"/>
<circle fill="#FFFFFF" cx="263.557" cy="139.586" r="0.672"/>
<circle fill="#FFFFFF" cx="245.479" cy="101.694" r="0.673"/>
<circle fill="#FFFFFF" cx="229.642" cy="89.898" r="0.673"/>
<circle fill="#FFFFFF" cx="243.352" cy="85.257" r="0.673"/>
<circle fill="#FFFFFF" cx="282.723" cy="95.328" r="0.673"/>
<circle fill="#FFFFFF" cx="266.887" cy="83.532" r="0.673"/>
<circle fill="#FFFFFF" cx="280.596" cy="78.891" r="0.673"/>
<circle fill="#FFFFFF" cx="227.483" cy="133.337" r="0.673"/>
<circle fill="#FFFFFF" cx="230.432" cy="93.021" r="0.673"/>
<circle fill="#FFFFFF" cx="258.548" cy="103.458" r="0.673"/>
<circle fill="#FFFFFF" cx="272.359" cy="77.119" r="0.673"/>
<circle fill="#FFFFFF" cx="228.646" cy="78.585" r="0.673"/>
<circle fill="#FFFFFF" cx="237.604" cy="98.052" r="0.673"/>
<circle fill="#FFFFFF" cx="240.381" cy="114.298" r="0.672"/>
<circle fill="#FFFFFF" cx="290.205" cy="101.004" r="0.673"/>
<circle fill="#FFFFFF" cx="245.971" cy="164.301" r="0.673"/>
<circle fill="#FFFFFF" cx="265.254" cy="142.691" r="0.673"/>
<circle fill="#FFFFFF" cx="226.086" cy="156.439" r="0.673"/>
<circle fill="#FFFFFF" cx="248.109" cy="155.519" r="0.673"/>
<circle fill="#FFFFFF" cx="222.612" cy="132.122" r="0.673"/>
<circle fill="#FFFFFF" cx="253.566" cy="115.571" r="0.672"/>
<circle fill="#FFFFFF" cx="249.131" cy="126.225" r="0.673"/>
<circle fill="#FFFFFF" cx="251.864" cy="109.604" r="0.673"/>
<circle fill="#FFFFFF" cx="280.75" cy="110.241" r="0.672"/>
<circle fill="#FFFFFF" cx="279.229" cy="134.616" r="0.673"/>
<circle fill="#FFFFFF" cx="256.931" cy="131.261" r="0.673"/>
<circle fill="#FFFFFF" cx="291.352" cy="119.69" r="0.673"/>
<circle fill="#FFFFFF" cx="293.486" cy="132.179" r="0.673"/>
<circle fill="#FFFFFF" cx="290.783" cy="138.328" r="0.673"/>
<circle fill="#FFFFFF" cx="294.853" cy="101.575" r="0.673"/>
<circle fill="#FFFFFF" cx="276.385" cy="88.693" r="0.673"/>
<circle fill="#FFFFFF" cx="277.005" cy="100.304" r="0.673"/>
<circle fill="#FFFFFF" cx="261.494" cy="89.417" r="0.673"/>
<circle fill="#FFFFFF" cx="291.64" cy="86.769" r="0.673"/>
<circle fill="#FFFFFF" cx="294.792" cy="67.279" r="0.673"/>
<circle fill="#FFFFFF" cx="242.31" cy="90.308" r="0.673"/>
<circle fill="#FFFFFF" cx="261.394" cy="82.839" r="0.673"/>
<circle fill="#FFFFFF" cx="259.83" cy="110.292" r="0.673"/>
<circle fill="#FFFFFF" cx="230.336" cy="150.025" r="0.673"/>
<circle fill="#FFFFFF" cx="124.822" cy="159.122" r="0.673"/>
</svg>
